<?xml version="1.0" encoding="utf-8"?>
<!-- Generator: Adobe Illustrator 18.0.0, SVG Export Plug-In . SVG Version: 6.00 Build 0)  -->
<!DOCTYPE svg PUBLIC "-//W3C//DTD SVG 1.1//EN" "http://www.w3.org/Graphics/SVG/1.1/DTD/svg11.dtd">
<svg version="1.1" id="Layer_1" xmlns="http://www.w3.org/2000/svg" xmlns:xlink="http://www.w3.org/1999/xlink" x="0px" y="0px"
	 viewBox="16 218 480 76" enable-background="new 16 218 480 76" xml:space="preserve">
<path fill="#010101" d="M492.3,285.6c0,0.4,0,0.7,0,1.1c-0.1,0.4-0.3,0.8-0.6,1.3c-0.4,0.8-1.3,1.1-2,1.6c-0.3,0-0.8,0-1.3,0
	c-1-0.3-1.7-0.8-2.3-1.8c-0.8-1.7-0.1-3.8,1.6-4.5c1.8-0.7,3.8,0.1,4.4,2C492.1,285.3,492.3,285.5,492.3,285.6z M174.9,267.1
	c0.1,1.3,0.3,2.5,0.1,3.8c-0.1,4.2-1.4,8-4.4,11.1c-2,2.1-4.4,3.4-7.1,4.2c-2.4,0.7-4.9,1.3-7.5,1.4c-1.8,0.1-3.7,0.3-5.6,0.3
	c-8,0.1-15.9,0.1-24,0.1c-0.1,0-0.3,0-0.4,0c-0.1-21.2-0.1-41.9-0.1-62.9c0.3,0,0.4,0,0.6,0c6.5,0,13,0,19.6,0c1.8,0,3.7,0,5.5,0.1
	c3.2,0.1,6.3,0.3,9.5,1.3c2.7,0.8,5.2,2,7.3,4.1s3.2,4.7,3.7,7.5c0.4,2.5,0.3,5.1-0.4,7.6c-0.8,2.8-2.7,4.8-5.2,6.3
	c-1.6,0.8-3.1,1.6-4.8,2c-0.1,0-0.1,0.1-0.3,0.1c1,0.1,2,0.3,2.8,0.6c4.1,1,7.2,3.2,9.2,7.1C174.2,263.6,174.8,265.3,174.9,267.1z
	 M141.8,237.5c0.1,4.5,0.1,8.6,0.1,12.7c0.1,0,0.3,0,0.3,0c1.8,0,3.7,0,5.5-0.1c1.6,0,3.1-0.3,4.7-0.7c1.4-0.4,2.7-1.3,3.2-2.7
	c0.6-1.4,0.6-3,0.4-4.4c-0.1-1-0.6-1.8-1.3-2.7c-1-1-2.3-1.4-3.7-1.7c-3-0.6-6.1-0.4-9.2-0.4H141.8z M158.7,266
	c-0.4-1.8-1.7-3.1-3.5-3.7c-1.7-0.6-3.5-0.7-5.2-0.8c-2.4-0.1-4.9,0-7.5,0c-0.1,0-0.4,0-0.6,0c0,4.7,0,9,0,13.5c3.1,0,6.1,0,9-0.1
	c1.4,0,2.8-0.3,4.2-0.8c2-0.7,3.2-2,3.7-3.9C159.1,268.7,159.1,267.3,158.7,266z M466.9,238.5c-0.1,6.8-5.8,12.1-12.4,12
	c-6.6,0.1-12.6-5.4-12.3-12.8c0.1-6.5,5.4-12,12.4-12C461.6,225.7,467,231.5,466.9,238.5z M464,238.2c0.1-5.6-4.4-9.9-9.6-9.7
	c-5.1,0-9.5,3.8-9.6,9.6c0,5.6,4.2,9.7,9.6,9.6C459.8,247.7,463.9,243.4,464,238.2z M459.5,238.5c-0.6,0.4-1.1,0.7-2.4,1
	c1,1.7,2,3.4,3.1,5.1c-0.7,0-1.4,0-2.1,0c-0.7,0.1-1.1-0.1-1.4-0.8c-0.7-1.3-1.6-2.5-2.3-3.9c-0.1-0.3-0.3-0.4-0.7-0.4
	c-0.6,0-1.1,0-1.8,0c0,1.7,0,3.4,0,5.1c-0.8,0-1.7,0-2.5,0c-0.1,0-0.1-0.1-0.1-0.3c0-0.1,0-0.3,0-0.4c0-3.9,0-7.8,0-11.7
	c0.1,0,0.1-0.1,0.1-0.3c2.7,0,5.2,0,7.8,0c1.3,0,2.4,0.4,3,1.6C460.8,234.6,460.8,237.4,459.5,238.5z M457.8,235.4
	c0-0.6-0.3-1-1-1.3c-0.3-0.1-0.7-0.1-1.1-0.1c-1.3,0-2.5,0-3.8,0c0.1,1,0.1,2,0.1,3c0.1,0,0.1,0,0.1,0c1.3,0,2.5,0,3.7,0
	c0.3,0,0.7,0,1-0.1C457.6,236.5,457.8,236.1,457.8,235.4z M114.7,225.7c-1.6-0.4-3.1-0.4-4.7-0.4c-0.3,0-0.4,0.1-0.6,0.3
	c-1.8,1.6-3.7,3.2-5.5,4.8c-2.8,2.5-5.6,4.9-8.5,7.5c-3.2,3-6.6,5.8-9.9,8.7c-1.1,1.1-2.3,2.1-3.1,3.5c-0.8,1.3-0.7,2.4,0.4,3.4
	c0.3,0.3,0.7,0.6,1.1,0.8c2.5,1.8,4.5,4.1,5.5,7.1c1,3,0.7,5.8-1.1,8.3c-1,1.4-2,2.7-3.1,3.8c-1.3,1.4-2.7,2.5-4.1,3.7
	c-3.8,3.1-7.6,6.3-11.4,9.6c-0.4,0.3-0.7,0.6-1.1,1c16.4,0,32.7,0,49.1,0c0-0.3,0-0.4,0.1-1c0-18.8,0-37.7,0-56.6c0,0,0-0.1,0-0.3
	C117.9,227.5,116.9,226.2,114.7,225.7z M75.7,268.3c1-1,2-1.8,2.8-2.7c0.7-0.7,0.7-1.3,0-2c-0.4-0.4-1-1-1.6-1.4
	c-1.7-1.3-3.4-2.5-4.7-4.2c-1.8-2.4-2.4-5.1-1.4-7.9c1-2.7,2.8-4.9,4.9-6.9c1.6-1.4,3.2-2.7,4.8-4.1c5.1-4.2,10.3-8.6,15.4-12.8
	c0.1-0.1,0.3-0.1,0.6-0.4c-0.3,0-0.6,0-0.7,0c-6.2,0-12.4,0-18.6,0c-1.7,0-3.5,0.1-5.4,0.4c-2.1,0.1-3.9,1.1-5.4,3
	c-3.9,4.9-7.8,9.7-11.7,14.7c-4.8,5.9-9.5,12-14.2,17.9c-5.4,6.9-10.9,13.7-16.2,20.5c-1.4,1.8-2.8,3.5-4.2,5.4c0,0.1,0,0.1-0.1,0.1
	c0.3,0,0.4,0,0.7,0c11,0,21.9,0,32.7,0c0.3,0,0.6,0,0.8-0.3c1.7-1.4,3.4-3,5.1-4.5c3.1-2.8,6.2-5.5,9.3-8.3
	C70.9,272.5,73.3,270.4,75.7,268.3z M182.8,287.9c12.8,0,25.5,0,38.4-0.1c0-4.8,0-9.5,0-14.1c-7.2,0-14.4,0-21.6,0
	c0-3.5,0-6.9,0-10.4c6.8,0,13.5,0,20.3,0c0-4.5,0-9,0-13.5c-6.8,0-13.5,0-20.3,0c0-3.5,0-7.1,0-10.7c7.2,0,14.4,0,21.6,0
	c0-4.5,0-9.2,0-13.7c-12.8,0-25.5,0-38.4,0C182.8,246.1,182.8,267,182.8,287.9z M461.9,262.1c-2.3-1.1-4.8-1.6-7.3-1.3
	c-3.5,0.4-6.3,2.1-8.5,4.8c-3.2,4.1-4.2,8.7-2.8,13.8c1.4,4.8,4.5,8.2,9.5,9.7c0.6,0.1,1.3,0.3,1.8,0.4c1,0,2,0,2.8,0
	c0-0.1,0.1-0.1,0.1-0.1c1.6-0.3,3-0.8,4.4-1.4c0.3-0.1,0.4-0.4,0.4-0.7c0-1.8,0-3.7,0-5.5c0-0.1,0-0.3,0-0.4c-0.4,0.4-1,0.8-1.4,1.3
	c-3.9,2.8-8.6,2-11.1-2.1c-1.6-2.4-2-5.2-1.3-8c0.4-1.8,1.3-3.7,2.8-4.9c3.1-2.7,7.5-2.4,10.3,0.4c0.3,0.3,0.4,0.4,0.7,0.7
	c0-0.3,0-0.4,0-0.6c0-1.8,0-3.5,0-5.4C462.4,262.5,462.2,262.2,461.9,262.1z M483.2,278.4c0.3,2.1,0,4.2-1,6.2
	c-1.6,3-3.9,4.5-7.2,4.8c-2.3,0.3-4.4-0.1-6.2-1.3c-2.5-1.4-3.8-3.8-4.2-6.6c-0.1-0.4-0.1-1-0.1-1.6c0-2.5,0.7-4.9,2.5-6.8
	c1.3-1.4,2.8-2.3,4.7-2.5c3-0.6,5.6-0.1,8,1.6C481.8,273.8,482.8,275.9,483.2,278.4z M477,276.6c-1.3-1.8-3.8-2.1-5.5-0.7
	c-1.3,1-1.7,2.4-1.8,3.4c0,2,0.4,3.1,1.3,4.2c1.4,1.7,3.9,1.8,5.5,0.3C478.4,281.8,478.6,278.7,477,276.6z M421.6,252.1
	c-3.4-1.6-6.9-2.7-10.6-3.7c-2-0.6-3.9-1.1-5.6-2.1c-3.2-1.8-3.4-6.3-0.3-8.3c1.7-1.1,3.7-1.4,5.6-1.3c3,0.3,5.6,1.3,8,2.8
	c1,0.7,2,1.4,3,2.1c0.1,0,0.1-0.1,0.1-0.1c1.7-3.8,3.4-7.8,5.1-11.7c0.1-0.3,0.1-0.4-0.1-0.6c-1.4-0.8-2.8-1.7-4.2-2.4
	c-3.2-1.6-6.5-2.4-10-2.8c-0.6,0-1-0.1-1.4-0.1c-1.7,0-3.5,0-5.4-0.1c-0.6,0.1-1.3,0.1-1.8,0.3c-4.8,0.8-9,2.8-12.3,6.5
	c-2.5,2.8-4.1,6.2-4.7,10c-0.1,1.4-0.3,3-0.3,4.4c0.1,3.4,1,6.6,3.2,9.5c1.7,2,3.8,3.4,6.2,4.5c3.2,1.6,6.6,2.4,9.9,3.4
	c1.6,0.6,3.1,1.1,4.7,1.8c1.8,0.7,3,2.3,3.2,4.2c0.3,1.8,0,3.5-1.1,5.1s-2.8,2.4-4.8,2.7c-3.7,0.6-6.9-0.4-9.9-2.4
	c-2.4-1.6-4.5-3.4-6.3-5.5c-0.1-0.1-0.3-0.3-0.4-0.4c-0.4,0.7-1,1.6-1.4,2.3c-2,3.4-4.1,6.6-6.1,10c-0.1,0.4-0.1,0.6,0.1,0.8
	c1.7,1.6,3.5,3,5.5,4.2c3.7,2.3,7.6,3.7,11.8,4.2c0.7,0,1.3,0.1,2,0.1c0,0,0,0.1,0.1,0.1c1.6,0,3.2,0,4.9,0c0.1-0.1,0.1-0.1,0.3-0.1
	c0.7,0,1.3,0,2-0.1c3.9-0.6,7.5-1.8,10.7-4.1c2.8-2,4.9-4.5,6.5-7.6c1.4-3.1,2-6.3,2.1-9.7c0-1.8-0.1-3.7-0.6-5.5
	C428.5,257.7,426,254.2,421.6,252.1z M293.9,225.3c-5.6,0-11.4,0-17.1,0c0,21,0,41.7,0,62.6c12.7,0,25.5,0,38.2,0
	c0-4.9,0-9.7,0-14.7c-7.1,0-14.1,0-21.2,0C293.9,257.1,293.9,241.2,293.9,225.3z M372.5,251.9c-3.5-1.7-7.3-2.7-11.1-3.8
	c-1.7-0.4-3.2-1-4.7-2c-3.1-2-3-6.3,0.1-8.2c1.7-1.1,3.7-1.3,5.6-1.1c2.3,0.1,4.4,0.7,6.3,1.8c1.7,1,3.1,2,4.7,3
	c0.1-0.4,0.4-0.8,0.6-1.3c1.6-3.5,3.1-7.1,4.7-10.6c0.1-0.3,0.1-0.6-0.1-0.7c-3-2-6.3-3.5-9.9-4.4c-1.7-0.3-3.5-0.6-5.4-0.8
	c-0.1,0-0.1-0.1-0.3-0.1c-1.7,0-3.4,0-5.1,0c-0.1,0.1-0.1,0.1-0.3,0.1c-0.7,0.1-1.6,0.1-2.3,0.3c-4.4,0.8-8.3,2.7-11.4,6.1
	c-3.5,3.7-5.1,8-5.2,13c0,1.6,0.1,3,0.3,4.4c0.6,3.9,2.4,7.2,5.8,9.5c3.2,2.1,6.8,3.4,10.4,4.4c2.5,0.8,5.1,1.6,7.5,2.7
	c3.2,1.6,3.9,5.4,2.8,7.9c-1.1,2.8-3.4,3.9-6.2,4.2c-2.5,0.3-4.9-0.3-7.2-1.4c-3-1.4-5.5-3.7-7.8-6.1c-0.3-0.4-0.6-0.7-1-1.1
	c-0.4,0.7-0.8,1.4-1.3,2.1c-2.1,3.5-4.2,6.9-6.3,10.4c-0.1,0.3-0.1,0.4,0,0.6c1,0.8,2,1.8,3.1,2.7c4.5,3.4,9.5,5.5,15.1,6.1
	c0.4,0,0.8,0.1,1.3,0.1c1.6,0,3.2,0,4.8,0.1c0.4,0,1-0.1,1.4-0.1c4.9-0.4,9.3-2.1,13.1-5.4c3.4-3,5.5-6.5,6.5-10.7
	c0.3-1.6,0.6-3.2,0.6-4.9c0.1-3.4-0.3-6.5-1.7-9.6C378.4,255.6,375.9,253.5,372.5,251.9z M229.6,287.9c12.8,0,25.5,0,38.4,0
	c0-4.8,0-9.5,0-14.1c-7.2,0-14.4,0-21.6,0c0-3.5,0-6.9,0-10.4c6.9,0,13.7,0,20.5,0c0-4.5,0-9,0-13.5c-6.9,0-13.7,0-20.5,0
	c0-3.5,0-7.1,0-10.7c7.3,0,14.5,0,21.7,0c0-4.5,0-9,0-13.7c-12.8,0-25.5,0-38.5-0.1C229.6,246.3,229.6,267,229.6,287.9z"/>
</svg>
