<?xml version="1.0" encoding="utf-8"?>
<!-- Generator: Adobe Illustrator 18.0.0, SVG Export Plug-In . SVG Version: 6.00 Build 0)  -->
<!DOCTYPE svg PUBLIC "-//W3C//DTD SVG 1.1//EN" "http://www.w3.org/Graphics/SVG/1.1/DTD/svg11.dtd">
<svg version="1.1" id="Icons" xmlns="http://www.w3.org/2000/svg" xmlns:xlink="http://www.w3.org/1999/xlink" x="0px" y="0px"
	 viewBox="14.5 9.7 51 61.3" enable-background="new 14.5 9.7 51 61.3" xml:space="preserve">
<g>
	<path fill="#106EE8" d="M40.1,14c11.7,0,21.1,9.5,21.1,21.1c0,6.3-2.8,12.3-7.7,16.3l-0.1,0.1l-0.1,0.1L40,65L26.1,51.1l-1-1
		c-4-4-6.1-9.3-6.1-14.9C18.9,23.5,28.4,14,40.1,14 M40.1,10c-13.9,0-25.1,11.3-25.1,25.1c0,6.9,2.8,13.1,7.3,17.7l0,0L40,70.6
		l16.1-16.1c5.6-4.6,9.2-11.6,9.2-19.4C65.2,21.3,54,10,40.1,10L40.1,10z"/>
</g>
<g>
	<path fill="#106EE8" d="M40.1,29.6c3.1,0,5.6,2.5,5.6,5.6s-2.5,5.6-5.6,5.6s-5.6-2.5-5.6-5.6S37,29.6,40.1,29.6 M40.1,25.6
		c-5.3,0-9.6,4.3-9.6,9.6c0,5.3,4.3,9.6,9.6,9.6c5.3,0,9.6-4.3,9.6-9.6C49.7,29.9,45.4,25.6,40.1,25.6L40.1,25.6z"/>
</g>
</svg>
